<?xml version="1.0" encoding="UTF-8"?>
<svg id="Layer_2" data-name="Layer 2" xmlns="http://www.w3.org/2000/svg" viewBox="0 0 667.54 534.35">
  <defs>
    <style>
      .cls-1 {
        fill: #22c55e;
        stroke-width: 0px;
      }
    </style>
  </defs>
  <g id="Layer_1-2" data-name="Layer 1">
    <g>
      <path class="cls-1" d="M479.46,223.88c4.38,30.4-14.69,54.49-44.25,56.72-2.66.2-5.33.27-7.99.27-62.32.04-124.65.05-186.97.11-8.95,0-17.61-1.29-25.75-5.16-18.75-8.91-28.89-28.52-26.37-51.86h131.35c-5.92-10.55-13.92-16.08-24.57-17.78-2.94-.47-5.98-.47-8.97-.47-38.33-.05-76.66-.14-114.98,0-5.17.02-9.29-.92-12.68-5.12-2.49-3.08-5.65-5.61-9.3-9.14,2.3-.22,3.65-.45,5-.45,43.83-.08,87.66.21,131.48-.34,19.9-.25,35.15,7.18,46.52,23.21.48.68.97,1.35,1.91,2.65,1.64-2.03,2.85-3.48,4.01-4.97,10.21-13.05,23.04-20.76,40.13-20.71,44.83.14,89.65.05,134.48.06,1.95,0,3.91,0,7.37,0-5.57,5.25-9.9,9.75-14.72,13.63-1.54,1.24-4.4,1.13-6.65,1.13-38.99.05-77.99.15-116.98-.06-10.95-.06-20.41,2.69-27.66,11.22-1.66,1.96-2.99,4.2-4.99,7.06h130.58ZM203.4,239.8c.68,2.26,1.02,4.39,1.93,6.26,6.23,12.85,16.82,19.07,30.86,19.09,66.14.08,132.28,0,198.41-.02,1.17,0,2.34-.02,3.49-.13,12.72-1.19,24.43-12.6,25.49-25.2H203.4Z"/>
      <path class="cls-1" d="M188.4,135.66c2.97-47.98,24.4-85.35,64.38-110.51,51.31-32.29,104.89-33.54,157.7-3.45,41.61,23.71,71.87,75.84,68.26,113.95H188.4ZM333.98,105.28c26.34-21.6,52.14-42.77,78.02-63.99-44.86-35.15-117.87-30.66-155.73.22,25.87,21.23,51.71,42.43,77.72,63.77ZM341.68,120.03h120.33c-.07-1.38,0-2.39-.19-3.35-4.98-24.23-17.13-44.52-34.04-62.24-2.41-2.52-4.01-1.11-5.89.41-9.07,7.33-18.17,14.61-27.21,21.96-17.3,14.07-34.57,28.18-53.01,43.22ZM243.05,51.81c-19.72,19.24-32.86,41.25-37.83,68.27h120.03c-27.84-23.12-54.82-45.53-82.2-68.27Z"/>
      <path class="cls-1" d="M199.03,445.28c-15.2-16.98-29.93-33.44-45.72-51.09v73.21h-17.33v-118.99c21.59,24.1,42.46,47.41,63.53,70.93,20.97-23.33,41.73-46.41,63.4-70.52v118.54h-17.19v-71.09c-.44-.13-.87-.25-1.31-.38-15.04,16.37-30.08,32.73-45.39,49.39Z"/>
      <path class="cls-1" d="M451.87,421.68v29.35h77.76v16.35h-95.4v-111.52h95.49v16.61h-78v31.93h54.74c.16.39.32.77.48,1.16-5.51,5.13-10.95,10.34-16.6,15.31-.94.83-2.82.8-4.27.81-9.49.06-18.99.01-28.49,0-1.79,0-3.59,0-5.73,0Z"/>
      <path class="cls-1" d="M334.5,168.82c11.21-9.48,24.44-10.76,38.21-10.72,41.99.14,83.98.06,125.97-.07,3.77-.01,6.63.9,9.27,3.65,3.43,3.58,7.26,6.78,12.1,11.23-3.35,0-5.24,0-7.13,0-47.66.02-95.31.12-142.97,0-12.36-.03-23.4,2.97-32.35,11.86-2.18,2.17-3.86,1.79-5.93-.14-9.27-8.7-20.51-11.82-33-11.79-47.66.11-95.31.1-142.97.13-1.93,0-3.85,0-7.39,0,5.64-5.35,10.05-9.75,14.76-13.83,1.06-.91,3.12-.92,4.72-.92,44.66-.07,89.31-.07,133.97-.13,12.03-.02,23.01,3.12,32.75,10.72Z"/>
      <path class="cls-1" d="M558.45,355.96h17.28v49.04h74.5v-48.99h17.3v111.28h-16.85v-44.35h-74.78v44.47h-17.45v-111.44Z"/>
      <path class="cls-1" d="M372.23,434c-5.41,10.26-10.56,19.53-15.18,29.06-1.82,3.75-4.03,5.07-8.05,4.7-3.9-.36-7.86-.08-12.7-.08,3.42-6.79,6.35-12.69,9.37-18.55,5.1-9.92,10.15-19.86,15.45-29.67,1.45-2.67,1.41-4.72-.08-7.32-4.19-7.32-8.11-14.78-12.53-22.92-1.49,2.58-2.62,4.39-3.61,6.26-12.11,22.77-24.27,45.53-36.24,68.38-1.52,2.91-3.14,4.26-6.49,4.04-4.3-.28-8.62-.07-14.47-.07,20.57-39.44,40.64-77.92,61.1-117.16,20.1,39.16,39.81,77.56,60.02,116.95-6.41,0-12.12.19-17.8-.17-1.07-.07-2.21-2.23-2.95-3.62-4.29-8.08-8.46-16.23-12.69-24.35-.81-1.55-1.75-3.03-3.16-5.48Z"/>
      <path class="cls-1" d="M110.55,451.26v15.8c-.97.24-1.9.66-2.82.66-18.82-.06-37.67.54-56.45-.42-33.31-1.71-54.67-27.85-50.84-61.05,3.16-27.44,19.95-46.02,47.55-49.13,20.39-2.3,41.13-1.56,62.07-2.19v17.54c-1.84,0-3.6,0-5.37,0-14.83,0-29.65-.1-44.47.03-9.23.08-18.26,1.1-26.24,6.55-19.23,13.12-22.94,43.64-7.36,60.98,7.5,8.34,17.36,10.87,27.96,11.04,16.65.27,33.31.15,49.97.19,1.82,0,3.63,0,6,0Z"/>
      <path class="cls-1" d="M403.74,504.48c1.52,1.13,3.41,1.98,4.49,3.43,3.92,5.25,7.57,10.7,12.44,15.76,0-4.93-.14-9.86.1-14.77.06-1.24,1.31-2.42,2.01-3.63.76,1.15,2.15,2.28,2.18,3.45.19,7.94.1,15.89.1,25.62-2.86-1.82-4.99-2.54-6.13-4.02-3.91-5.06-7.46-10.39-11.16-15.61-.43.13-.85.26-1.28.39,0,4.75.14,9.5-.1,14.24-.06,1.23-1.33,2.4-2.04,3.6-.74-1.19-2.08-2.36-2.11-3.57-.19-7.95-.1-15.91-.1-23.87.53-.34,1.06-.69,1.59-1.03Z"/>
      <path class="cls-1" d="M458.97,532.47v-27.33c7.52.34,15.38-2.26,21.32,4.72,3.59,4.22,3.81,11.86.8,16.92-3.36,5.65-11.12,7.73-22.12,5.69ZM463.41,529.35c2.26,0,3.9.11,5.53-.02,6.8-.56,10.47-5.53,9.35-12.53-.95-5.93-6.64-9.72-12.63-8.17-.91.24-2.12,1.66-2.15,2.58-.2,5.79-.1,11.6-.1,18.14Z"/>
      <path class="cls-1" d="M369.06,533.25c-1.52-.88-4.06-1.46-4.4-2.68-1.81-6.33-6.8-3.63-10.65-4.28-3.39-.57-4.52,1.42-5.75,4.06-.61,1.32-2.56,2.01-3.9,2.99l-1.34-1.22c3.73-8.58,7.26-17.26,11.3-25.69,1.14-2.38,3.73-2.13,4.92.55,3.7,8.29,7.24,16.65,10.85,24.99-.34.43-.68.85-1.02,1.28ZM356.35,510.6c-1.87,4.82-3.2,8.26-4.71,12.16h9.52c-1.51-3.81-2.89-7.29-4.82-12.16Z"/>
      <path class="cls-1" d="M196.22,508.88c-3.69-.22-6.6-.39-9.51-.57l-.51-1.16c.8-.64,1.62-1.84,2.4-1.82,7.06.19,14.28-1.13,21.19.66,0,.69-.01,1.37-.02,2.06-2.81.31-5.62.62-9.03,1,0,5.28.32,10.43-.12,15.51-.25,2.85,2.29,8.18-2.26,8.08-4.42-.1-1.69-5.41-1.99-8.3-.52-4.93-.14-9.96-.14-15.45Z"/>
      <path class="cls-1" d="M237.6,505.1c8.38.06,6.99,8.23,11.48,11.08,4-2.73,2.93-11.04,11.05-10.92-1.4,2.54-2.43,4.58-3.62,6.54-3.38,5.57-6.5,11.16-5.44,18.12.14.93-1.28,2.09-1.98,3.14-.78-.8-2.35-1.74-2.23-2.38,1.53-8.77-3.87-15.12-7.46-22.1-.45-.87-.89-1.73-1.78-3.49Z"/>
      <path class="cls-1" d="M296,529.33c4.59,0,8.25-.1,11.9.08.89.04,1.73,1.02,2.6,1.57-.87.71-1.72,2-2.62,2.04-5.13.2-10.27.1-16.29.1,0-8.8-.05-17.21.09-25.61.01-.73,1.33-1.44,2.05-2.17.76,1,2.14,1.99,2.17,3.01.2,6.78.1,13.56.1,20.98Z"/>
      <path class="cls-1" d="M363.63,48.98c1.34,2.28,3.62,4.49,3.79,6.85.24,3.27-2.33,5.57-5.87,5.3-3.64-.28-6.25-2.6-5.25-6.28.63-2.31,3.23-4.08,4.95-6.1.79.07,1.59.15,2.38.22Z"/>
      <path class="cls-1" d="M330.73,78.35c-1.47-2.2-3.87-4.28-4.19-6.63-.43-3.22,1.86-5.59,5.49-5.75,3.42-.14,6.59,2.77,5.68,5.97-.68,2.39-2.98,4.32-4.56,6.45-.81-.01-1.62-.03-2.42-.04Z"/>
      <path class="cls-1" d="M307.24,37.64c-.41,3.64-2.31,5.88-6.1,5.88-3.37,0-5.3-2-5.4-5.3-.1-3.72,1.86-6.03,5.69-6.15,3.64-.11,5.38,2.1,5.81,5.57Z"/>
      <path class="cls-1" d="M404.29,108.9c-1.12-1.5-3.6-3.45-4.09-5.81-.75-3.63,1.72-5.99,5.51-6.11,3.53-.11,5.79,1.9,5.96,5.39.18,3.73-2.06,5.79-7.37,6.53Z"/>
      <path class="cls-1" d="M427.58,83.69c-3.3-.4-5.57-2.04-5.54-5.71.03-3.61,2.21-5.65,5.67-5.58,3.4.06,5.69,2.06,5.7,5.66.01,3.63-2.26,5.32-5.84,5.63Z"/>
      <path class="cls-1" d="M267.66,100.41c-.44,5.33-2.58,7.98-6.06,7.39-2.08-.35-4.82-3.03-5.31-5.13-.84-3.52,1.84-6.33,5.4-5.95,2.32.25,4.41,2.66,5.97,3.68Z"/>
      <path class="cls-1" d="M242.84,88.38c-4.65-.92-7.08-2.4-7.19-6.02-.11-3.5,2.03-5.65,5.44-5.79,3.36-.14,6.19,1.76,5.77,5.21-.28,2.33-2.61,4.41-4.02,6.6Z"/>
    </g>
  </g>
</svg>